<svg xmlns="http://www.w3.org/2000/svg" viewBox="0 0 1100 520" font-family="Inter, -apple-system, sans-serif" preserveAspectRatio="xMidYMid slice">
  <rect width="1100" height="520" fill="#FFFFFF"/>
  <rect x="36" y="30" width="150" height="36" rx="18" fill="#FFFFFF" stroke="#E3E6EE"/>
  <text x="58" y="53" font-size="14" font-weight="600" fill="#565E6E">Before</text>
  <circle cx="160" cy="48" r="5" fill="#D9534F"/>

  <g font-size="12.5" fill="#8B93A3">
    <text x="40" y="112">TOTAL CLICKS</text>
    <text x="300" y="112">TOTAL IMPRESSIONS</text>
    <text x="600" y="112">AVG POSITION</text>
    <text x="860" y="112">REFERRING DOMAINS</text>
  </g>
  <g font-size="30" font-weight="700" fill="#16192A">
    <text x="40" y="150">3.2K</text>
    <text x="300" y="150">410K</text>
    <text x="600" y="150">#9.4</text>
    <text x="860" y="150">54</text>
  </g>
  <g font-size="13" font-weight="600" fill="#D9534F">
    <text x="118" y="150">▼ -4.1%</text>
    <text x="404" y="150">▼ -9.8%</text>
    <text x="678" y="150">▼ falling</text>
    <text x="908" y="150">—</text>
  </g>

  <g stroke="#EFF1F6" stroke-width="1">
    <line x1="60" y1="230" x2="1050" y2="230"/><line x1="60" y1="290" x2="1050" y2="290"/>
    <line x1="60" y1="350" x2="1050" y2="350"/><line x1="60" y1="410" x2="1050" y2="410"/><line x1="60" y1="470" x2="1050" y2="470"/>
  </g>
  <g font-size="11" fill="#B0B6C3">
    <text x="30" y="234">500</text><text x="30" y="294">400</text><text x="30" y="354">300</text><text x="30" y="414">200</text><text x="30" y="474">100</text>
  </g>
  <path d="M60 300 C 200 280, 330 285, 460 310 C 620 340, 820 400, 1050 445" fill="none" stroke="#9AA3B3" stroke-width="3"/>
  <path d="M60 350 C 220 345, 380 360, 540 385 C 720 412, 880 440, 1050 462" fill="none" stroke="#D9534F" stroke-width="2.5" opacity="0.75"/>
  <path d="M60 400 C 240 398, 420 408, 600 424 C 780 440, 920 452, 1050 464" fill="none" stroke="#C9A26B" stroke-width="2.5" opacity="0.7"/>
</svg>
