<svg xmlns="http://www.w3.org/2000/svg" viewBox="0 0 1200 660" font-family="Inter, -apple-system, sans-serif">
  <defs>
    <linearGradient id="area" x1="0" y1="0" x2="0" y2="1">
      <stop offset="0" stop-color="#14B8A6" stop-opacity="0.22"/>
      <stop offset="1" stop-color="#14B8A6" stop-opacity="0"/>
    </linearGradient>
    <linearGradient id="line" x1="0" y1="0" x2="1" y2="0">
      <stop offset="0" stop-color="#0EA5A0"/>
      <stop offset="1" stop-color="#14B8A6"/>
    </linearGradient>
  </defs>

  <rect width="1200" height="660" fill="#FFFFFF"/>

  <!-- browser chrome -->
  <rect width="1200" height="52" fill="#F7F2EA"/>
  <circle cx="28" cy="26" r="6" fill="#F87171"/>
  <circle cx="50" cy="26" r="6" fill="#FBBF24"/>
  <circle cx="72" cy="26" r="6" fill="#34D399"/>
  <rect x="100" y="12" width="420" height="28" rx="14" fill="#FFFFFF" stroke="#EAE0D2"/>
  <text x="118" y="31" font-size="13" fill="#8B93A3">app.contomatix.com/dashboard</text>

  <!-- header -->
  <text x="40" y="102" font-size="22" font-weight="700" fill="#16192A">Ranking overview</text>
  <text x="40" y="124" font-size="13" fill="#8B93A3">Last 12 months · yoursite.com</text>
  <rect x="944" y="84" width="112" height="34" rx="17" fill="#F3ECE1"/>
  <text x="966" y="106" font-size="13" fill="#565E6E">Monthly</text>
  <rect x="1066" y="84" width="94" height="34" rx="17" fill="#16192A"/>
  <text x="1084" y="106" font-size="13" fill="#FFFFFF">Export</text>

  <!-- stat tiles -->
  <g>
    <rect x="40" y="146" width="256" height="92" rx="14" fill="#FFFFFF" stroke="#EAE0D2"/>
    <text x="60" y="176" font-size="12.5" fill="#8B93A3">Organic traffic</text>
    <text x="60" y="208" font-size="26" font-weight="700" fill="#16192A">48.2K</text>
    <rect x="188" y="188" width="88" height="26" rx="13" fill="#E5F7F1"/>
    <text x="200" y="206" font-size="12.5" font-weight="600" fill="#0B807C">▲ +32%</text>
  </g>
  <g>
    <rect x="328" y="146" width="256" height="92" rx="14" fill="#FFFFFF" stroke="#EAE0D2"/>
    <text x="348" y="176" font-size="12.5" fill="#8B93A3">Keywords in top 10</text>
    <text x="348" y="208" font-size="26" font-weight="700" fill="#16192A">126</text>
    <rect x="476" y="188" width="88" height="26" rx="13" fill="#E5F7F1"/>
    <text x="490" y="206" font-size="12.5" font-weight="600" fill="#0B807C">▲ +41</text>
  </g>
  <g>
    <rect x="616" y="146" width="256" height="92" rx="14" fill="#FFFFFF" stroke="#EAE0D2"/>
    <text x="636" y="176" font-size="12.5" fill="#8B93A3">Referring domains</text>
    <text x="636" y="208" font-size="26" font-weight="700" fill="#16192A">312</text>
    <rect x="764" y="188" width="88" height="26" rx="13" fill="#FDF3E2"/>
    <text x="778" y="206" font-size="12.5" font-weight="600" fill="#C77F08">▲ +28</text>
  </g>
  <g>
    <rect x="904" y="146" width="256" height="92" rx="14" fill="#FFFFFF" stroke="#EAE0D2"/>
    <text x="924" y="176" font-size="12.5" fill="#8B93A3">Domain rating</text>
    <text x="924" y="208" font-size="26" font-weight="700" fill="#16192A">62</text>
    <rect x="1052" y="188" width="88" height="26" rx="13" fill="#E5F7F1"/>
    <text x="1066" y="206" font-size="12.5" font-weight="600" fill="#0B807C">▲ +9</text>
  </g>

  <!-- chart card -->
  <rect x="40" y="266" width="724" height="354" rx="16" fill="#FFFFFF" stroke="#EAE0D2"/>
  <text x="64" y="302" font-size="15" font-weight="600" fill="#16192A">Organic sessions</text>
  <circle cx="600" cy="297" r="5" fill="#0EA5A0"/><text x="612" y="302" font-size="12" fill="#565E6E">This year</text>
  <circle cx="692" cy="297" r="5" fill="#F5A623"/><text x="704" y="302" font-size="12" fill="#565E6E">Last year</text>

  <!-- gridlines -->
  <g stroke="#F0E9DE" stroke-width="1">
    <line x1="64" y1="350" x2="740" y2="350"/>
    <line x1="64" y1="405" x2="740" y2="405"/>
    <line x1="64" y1="460" x2="740" y2="460"/>
    <line x1="64" y1="515" x2="740" y2="515"/>
    <line x1="64" y1="570" x2="740" y2="570"/>
  </g>

  <!-- last year line -->
  <path d="M64 552 C 130 548, 180 540, 240 536 C 320 530, 380 528, 460 520 C 540 513, 620 508, 740 498"
        fill="none" stroke="#F5A623" stroke-width="2.5" stroke-dasharray="6 6" opacity="0.7"/>

  <!-- this year area + line -->
  <path d="M64 540 C 140 532, 190 516, 250 504 C 330 488, 390 470, 460 444 C 540 414, 620 386, 740 340 L 740 570 L 64 570 Z" fill="url(#area)"/>
  <path d="M64 540 C 140 532, 190 516, 250 504 C 330 488, 390 470, 460 444 C 540 414, 620 386, 740 340"
        fill="none" stroke="url(#line)" stroke-width="3.5" stroke-linecap="round"/>
  <circle cx="740" cy="340" r="6" fill="#0EA5A0"/>
  <circle cx="740" cy="340" r="10" fill="#0EA5A0" opacity="0.2"/>

  <!-- tooltip -->
  <rect x="646" y="296" width="128" height="34" rx="10" fill="#16192A"/>
  <text x="662" y="318" font-size="12.5" fill="#FFFFFF">Dec · 6,410 visits</text>

  <!-- x labels -->
  <g font-size="11" fill="#8B93A3">
    <text x="64" y="596">Jan</text><text x="176" y="596">Mar</text><text x="288" y="596">May</text>
    <text x="400" y="596">Jul</text><text x="512" y="596">Sep</text><text x="624" y="596">Nov</text><text x="716" y="596">Dec</text>
  </g>

  <!-- keywords card -->
  <rect x="792" y="266" width="368" height="354" rx="16" fill="#FFFFFF" stroke="#EAE0D2"/>
  <text x="816" y="302" font-size="15" font-weight="600" fill="#16192A">Top keywords</text>

  <g font-size="13">
    <rect x="816" y="322" width="34" height="24" rx="8" fill="#E5F7F1"/>
    <text x="827" y="339" font-weight="700" fill="#0B807C">#1</text>
    <text x="862" y="339" fill="#16192A">link building services</text>
    <text x="1096" y="339" fill="#0B807C" font-weight="600">▲ 4</text>

    <rect x="816" y="362" width="34" height="24" rx="8" fill="#E5F7F1"/>
    <text x="826" y="379" font-weight="700" fill="#0B807C">#2</text>
    <text x="862" y="379" fill="#16192A">guest posting agency</text>
    <text x="1096" y="379" fill="#0B807C" font-weight="600">▲ 7</text>

    <rect x="816" y="402" width="34" height="24" rx="8" fill="#E5F7F1"/>
    <text x="826" y="419" font-weight="700" fill="#0B807C">#3</text>
    <text x="862" y="419" fill="#16192A">buy niche edits</text>
    <text x="1096" y="419" fill="#0B807C" font-weight="600">▲ 2</text>

    <rect x="816" y="442" width="34" height="24" rx="8" fill="#FDF3E2"/>
    <text x="826" y="459" font-weight="700" fill="#C77F08">#5</text>
    <text x="862" y="459" fill="#16192A">keyword research tool</text>
    <text x="1096" y="459" fill="#0B807C" font-weight="600">▲ 11</text>

    <rect x="816" y="482" width="34" height="24" rx="8" fill="#FDF3E2"/>
    <text x="826" y="499" font-weight="700" fill="#C77F08">#6</text>
    <text x="862" y="499" fill="#16192A">off page seo checklist</text>
    <text x="1096" y="499" fill="#0B807C" font-weight="600">▲ 3</text>

    <rect x="816" y="522" width="34" height="24" rx="8" fill="#FDF3E2"/>
    <text x="826" y="539" font-weight="700" fill="#C77F08">#8</text>
    <text x="862" y="539" fill="#16192A">seo agency pakistan</text>
    <text x="1096" y="539" fill="#0B807C" font-weight="600">▲ 6</text>
  </g>

  <rect x="816" y="568" width="320" height="34" rx="17" fill="#F3ECE1"/>
  <text x="922" y="590" font-size="13" font-weight="600" fill="#565E6E">View all 126 →</text>
</svg>
