<svg xmlns="http://www.w3.org/2000/svg" viewBox="0 0 760 560" font-family="Inter, -apple-system, sans-serif">
  <rect width="760" height="560" fill="#FDFAF5"/>

  <!-- connection lines -->
  <g stroke="#D9CDBB" stroke-width="2" fill="none">
    <path d="M380 280 C 300 220, 240 190, 160 150"/>
    <path d="M380 280 C 470 210, 530 180, 600 140"/>
    <path d="M380 280 C 280 330, 220 370, 150 420"/>
    <path d="M380 280 C 480 340, 550 380, 615 415"/>
    <path d="M380 280 C 380 200, 380 160, 380 108"/>
  </g>
  <g stroke="#14B8A6" stroke-width="2.5" fill="none" stroke-dasharray="7 7">
    <path d="M160 150 C 240 190, 300 220, 380 280"/>
    <path d="M600 140 C 530 180, 470 210, 380 280"/>
  </g>

  <!-- your site (center) -->
  <rect x="270" y="238" width="220" height="86" rx="16" fill="#16192A"/>
  <circle cx="302" cy="281" r="14" fill="#14B8A6"/>
  <path d="M296 281l4.5 4.5 8-8" stroke="#FFFFFF" stroke-width="2.6" fill="none" stroke-linecap="round" stroke-linejoin="round"/>
  <text x="326" y="276" font-size="15" font-weight="700" fill="#FFFFFF">yoursite.com</text>
  <text x="326" y="298" font-size="12" fill="#9AA3B8">Authority growing</text>

  <!-- linking domains -->
  <g>
    <rect x="62" y="106" width="196" height="72" rx="14" fill="#FFFFFF" stroke="#EAE0D2"/>
    <circle cx="92" cy="142" r="12" fill="#E5F7F1"/>
    <circle cx="92" cy="142" r="5" fill="#0EA5A0"/>
    <text x="114" y="138" font-size="13.5" font-weight="600" fill="#16192A">techjournal.com</text>
    <rect x="114" y="146" width="52" height="20" rx="10" fill="#E5F7F1"/>
    <text x="122" y="160" font-size="11" font-weight="700" fill="#0B807C">DR 74</text>
  </g>
  <g>
    <rect x="512" y="96" width="196" height="72" rx="14" fill="#FFFFFF" stroke="#EAE0D2"/>
    <circle cx="542" cy="132" r="12" fill="#FDF3E2"/>
    <circle cx="542" cy="132" r="5" fill="#F59E0B"/>
    <text x="564" y="128" font-size="13.5" font-weight="600" fill="#16192A">growthblog.io</text>
    <rect x="564" y="136" width="52" height="20" rx="10" fill="#E5F7F1"/>
    <text x="572" y="150" font-size="11" font-weight="700" fill="#0B807C">DR 68</text>
  </g>
  <g>
    <rect x="52" y="384" width="196" height="72" rx="14" fill="#FFFFFF" stroke="#EAE0D2"/>
    <circle cx="82" cy="420" r="12" fill="#FCE9F3"/>
    <circle cx="82" cy="420" r="5" fill="#F472B6"/>
    <text x="104" y="416" font-size="13.5" font-weight="600" fill="#16192A">saasreview.net</text>
    <rect x="104" y="424" width="52" height="20" rx="10" fill="#E5F7F1"/>
    <text x="112" y="438" font-size="11" font-weight="700" fill="#0B807C">DR 61</text>
  </g>
  <g>
    <rect x="520" y="382" width="196" height="72" rx="14" fill="#FFFFFF" stroke="#EAE0D2"/>
    <circle cx="550" cy="418" r="12" fill="#E5F7F1"/>
    <circle cx="550" cy="418" r="5" fill="#0EA5A0"/>
    <text x="572" y="414" font-size="13.5" font-weight="600" fill="#16192A">martechdaily.com</text>
    <rect x="572" y="422" width="52" height="20" rx="10" fill="#E5F7F1"/>
    <text x="580" y="436" font-size="11" font-weight="700" fill="#0B807C">DR 71</text>
  </g>
  <g>
    <rect x="282" y="42" width="196" height="66" rx="14" fill="#FFFFFF" stroke="#EAE0D2"/>
    <circle cx="312" cy="75" r="12" fill="#FDF3E2"/>
    <circle cx="312" cy="75" r="5" fill="#F97316"/>
    <text x="334" y="71" font-size="13.5" font-weight="600" fill="#16192A">devinsider.dev</text>
    <rect x="334" y="79" width="52" height="20" rx="10" fill="#E5F7F1"/>
    <text x="342" y="93" font-size="11" font-weight="700" fill="#0B807C">DR 66</text>
  </g>

  <!-- floating stat chip -->
  <rect x="486" y="486" width="212" height="48" rx="24" fill="#FFFFFF" stroke="#EAE0D2"/>
  <circle cx="514" cy="510" r="13" fill="#E5F7F1"/>
  <path d="M508 510l4 4 8-8" stroke="#0B807C" stroke-width="2.4" fill="none" stroke-linecap="round" stroke-linejoin="round"/>
  <text x="538" y="515" font-size="13" font-weight="600" fill="#16192A">+38 links this quarter</text>
</svg>
