<svg xmlns="http://www.w3.org/2000/svg" viewBox="0 0 760 560" font-family="Inter, -apple-system, sans-serif">
  <defs>
    <linearGradient id="rbar" x1="0" y1="1" x2="0" y2="0">
      <stop offset="0" stop-color="#0EA5A0"/>
      <stop offset="1" stop-color="#14B8A6"/>
    </linearGradient>
  </defs>
  <rect width="760" height="560" fill="#FDFAF5"/>

  <!-- main report card -->
  <rect x="60" y="70" width="500" height="420" rx="18" fill="#FFFFFF" stroke="#EAE0D2"/>
  <text x="92" y="118" font-size="17" font-weight="700" fill="#16192A">Monthly SEO report</text>
  <text x="92" y="140" font-size="12.5" fill="#8B93A3">December · sent automatically</text>
  <rect x="428" y="100" width="100" height="30" rx="15" fill="#E5F7F1"/>
  <text x="446" y="120" font-size="12.5" font-weight="600" fill="#0B807C">On track</text>

  <!-- bars -->
  <g>
    <rect x="92"  y="330" width="42" height="90"  rx="8" fill="#EFE7DA"/>
    <rect x="150" y="300" width="42" height="120" rx="8" fill="#EFE7DA"/>
    <rect x="208" y="318" width="42" height="102" rx="8" fill="#EFE7DA"/>
    <rect x="266" y="270" width="42" height="150" rx="8" fill="url(#rbar)"/>
    <rect x="324" y="242" width="42" height="178" rx="8" fill="url(#rbar)"/>
    <rect x="382" y="206" width="42" height="214" rx="8" fill="url(#rbar)"/>
    <rect x="440" y="170" width="42" height="250" rx="8" fill="#F59E0B"/>
  </g>
  <line x1="92" y1="420" x2="528" y2="420" stroke="#EAE0D2" stroke-width="1.5"/>
  <g font-size="11" fill="#8B93A3">
    <text x="100" y="444">Jun</text><text x="158" y="444">Jul</text><text x="214" y="444">Aug</text>
    <text x="272" y="444">Sep</text><text x="332" y="444">Oct</text><text x="388" y="444">Nov</text><text x="446" y="444">Dec</text>
  </g>
  <!-- trend arrow -->
  <path d="M113 300 C 220 280, 300 240, 461 148" fill="none" stroke="#16192A" stroke-width="2.5" stroke-dasharray="1 0" opacity="0.85"/>
  <path d="M448 146l14-4 -2 15" fill="none" stroke="#16192A" stroke-width="2.5" stroke-linecap="round" stroke-linejoin="round"/>

  <!-- floating cards -->
  <rect x="512" y="196" width="196" height="84" rx="16" fill="#FFFFFF" stroke="#EAE0D2"/>
  <text x="536" y="228" font-size="12.5" fill="#8B93A3">Traffic value</text>
  <text x="536" y="258" font-size="24" font-weight="700" fill="#16192A">$12.4K</text>
  <rect x="636" y="238" width="56" height="24" rx="12" fill="#E5F7F1"/>
  <text x="644" y="255" font-size="11.5" font-weight="700" fill="#0B807C">+64%</text>

  <rect x="524" y="312" width="196" height="98" rx="16" fill="#16192A"/>
  <text x="548" y="344" font-size="12.5" fill="#9AA3B8">Goal completions</text>
  <text x="548" y="376" font-size="24" font-weight="700" fill="#FFFFFF">1,208</text>
  <path d="M548 392 l18 -8 14 5 20 -12 16 6 22 -14" stroke="#14B8A6" stroke-width="2.5" fill="none" stroke-linecap="round"/>

  <rect x="540" y="440" width="180" height="52" rx="26" fill="#FFFFFF" stroke="#EAE0D2"/>
  <circle cx="568" cy="466" r="13" fill="#FDF3E2"/>
  <text x="561" y="472" font-size="14">📈</text>
  <text x="592" y="471" font-size="13" font-weight="600" fill="#16192A">Rankings up 4.2×</text>
</svg>
