<svg xmlns="http://www.w3.org/2000/svg" viewBox="0 0 80 80">
  <defs><clipPath id="c1"><circle cx="40" cy="40" r="40"/></clipPath></defs>
  <g clip-path="url(#c1)">
    <rect width="80" height="80" fill="#0EA5A0"/>
    <rect width="80" height="80" fill="url(#g1)" opacity="0"/>
    <circle cx="40" cy="33" r="14" fill="#F0C7A0"/>
    <path d="M26 33 a14 14 0 0 1 28 0 v-6 a14 11 0 0 0 -28 0 z" fill="#2B2B33"/>
    <path d="M40 50 c-14 0 -22 8 -24 18 l0 12 48 0 0 -12 c-2 -10 -10 -18 -24 -18z" fill="#16192A"/>
    <path d="M40 50 c-4 0 -7 1 -9 2 l9 8 9 -8 c-2 -1 -5 -2 -9 -2z" fill="#FFFFFF"/>
  </g>
</svg>
