<svg xmlns="http://www.w3.org/2000/svg" viewBox="0 0 80 80">
  <defs><clipPath id="c3"><circle cx="40" cy="40" r="40"/></clipPath></defs>
  <g clip-path="url(#c3)">
    <rect width="80" height="80" fill="#F472B6"/>
    <circle cx="40" cy="33" r="14" fill="#C68B59"/>
    <path d="M26 31 a14 14 0 0 1 28 0 v-5 a14 12 0 0 0 -28 0 z" fill="#1A1A1F"/>
    <rect x="24" y="24" width="8" height="3" rx="1.5" fill="#1A1A1F"/>
    <path d="M40 50 c-14 0 -22 8 -24 18 l0 12 48 0 0 -12 c-2 -10 -10 -18 -24 -18z" fill="#23273B"/>
    <path d="M31 52 l9 10 9 -10 c-3 -1.4 -6 -2 -9 -2 -3 0 -6 0.6 -9 2z" fill="#EAF6F4"/>
    <path d="M38 60 h4 l1.5 12 -3.5 4 -3.5 -4z" fill="#0EA5A0"/>
  </g>
</svg>
